<?xml version="1.0" standalone="no"?>
<!DOCTYPE svg PUBLIC "-//W3C//DTD SVG 1.1//EN" "http://www.w3.org/Graphics/SVG/1.1/DTD/svg11.dtd" >
<svg xmlns="http://www.w3.org/2000/svg" xmlns:xlink="http://www.w3.org/1999/xlink" version="1.1">
<metadata>
Created by FontForge 20150318 at Tue Sep  8 02:48:34 2015
 By uniteet7
Copyright (c) 1989, 1990 Adobe Systems Incorporated.  All Rights Reserved.Trade Gothic is a trademark of Linotype AG and/or its subsidiaries.
</metadata>
<defs>
<font id="TradeGothicBold" horiz-adv-x="500" >
  <font-face 
    font-family="TradeGothicBold"
    font-weight="700"
    font-stretch="normal"
    units-per-em="1000"
    panose-1="2 11 8 0 0 0 0 0 0 0"
    ascent="800"
    descent="-200"
    x-height="544"
    cap-height="722"
    bbox="-58 -228 1000 971"
    underline-thickness="50"
    underline-position="-50"
    unicode-range="U+0020-2122"
  />
<missing-glyph horiz-adv-x="502" 
d="M-1 0h500v500h-500v-500zM9 10v480h480v-480h-480z" />
    <glyph glyph-name=".notdef" horiz-adv-x="502" 
d="M-1 0h500v500h-500v-500zM9 10v480h480v-480h-480z" />
    <glyph glyph-name=".null" horiz-adv-x="0" 
 />
    <glyph glyph-name="nonmarkingreturn" horiz-adv-x="333" 
 />
    <glyph glyph-name="space" unicode=" " horiz-adv-x="278" 
 />
    <glyph glyph-name="exclam" unicode="!" horiz-adv-x="278" 
d="M212 722h-146l28 -478h90zM210 0v142h-142v-142h142z" />
    <glyph glyph-name="quotedbl" unicode="&#x22;" horiz-adv-x="333" 
d="M199 452h110v270h-110v-270zM24 452h110v270h-110v-270z" />
    <glyph glyph-name="numbersign" unicode="#" horiz-adv-x="556" 
d="M506 300h-86l18 122h98v94h-86l28 206h-96l-29 -206h-99l28 206h-96l-29 -206h-106v-94h94l-18 -122h-107v-94h94l-28 -206h96l29 206h99l-28 -206h96l29 206h99v94zM341 422l-18 -122h-99l18 122h99z" />
    <glyph glyph-name="dollar" unicode="$" horiz-adv-x="556" 
d="M19 127q18 -25 44 -47.5t55.5 -40.5t59 -28t54.5 -10v-115h78v114q44 1 82.5 15.5t67.5 40.5q62 56 62 144q0 48 -16.5 85t-45.5 63t-65.5 44.5t-84.5 35.5v184q33 -3 60 -22t52 -49l78 75q-37 41 -83.5 68.5t-106.5 37.5v64h-78v-64q-86 -4 -143 -55.5t-57 -137.5
q0 -79 56.5 -132.5t143.5 -78.5v-206q-36 7 -68.5 32.5t-58.5 60.5zM232 450q-36 11 -61 34.5t-25 54.5q0 36 25 57t61 22v-168zM310 295h1q45 -20 67 -40t22 -59q0 -38 -25.5 -62t-64.5 -24v185z" />
    <glyph glyph-name="percent" unicode="%" horiz-adv-x="889" 
d="M214 722q-37 0 -70 -14t-58 -39t-38.5 -58t-13.5 -69t13.5 -69t38.5 -58t58 -39t70 -14t70 14t58 39t38.5 58t13.5 69t-13.5 69t-38.5 58t-58 39t-70 14zM214 624q33 0 57.5 -24.5t24.5 -57.5t-24.5 -57.5t-57.5 -24.5t-57.5 24.5t-24.5 57.5t24.5 57.5t57.5 24.5z
M675 360q-37 0 -70 -14t-58 -39t-38.5 -58t-13.5 -69t13.5 -69t38.5 -58t58 -39t70 -14t70 14t58 39t38.5 58t13.5 69t-13.5 69t-38.5 58t-58 39t-70 14zM675 262q33 0 57.5 -24.5t24.5 -57.5t-24.5 -57.5t-57.5 -24.5t-57.5 24.5t-24.5 57.5t24.5 57.5t57.5 24.5zM197 -10
h85l415 742h-85z" />
    <glyph glyph-name="ampersand" unicode="&#x26;" horiz-adv-x="667" 
d="M274 648q30 0 47 -20.5t17 -46.5q0 -34 -18 -58t-53 -54q-10 -9 -15 -13q-21 35 -31 60t-10 54q0 34 17 56t46 22zM507 363q-9 -32 -23 -61.5t-39 -73.5l-3 -6q-70 68 -129 147l6 5q32 25 53.5 43.5t39.5 41.5t29 50.5t11 59.5q0 69 -48.5 116t-121.5 47q-79 0 -132 -46
t-53 -134q0 -43 14 -79.5t45 -82.5q-60 -39 -91 -84.5t-31 -115.5q0 -97 64 -148.5t171 -51.5q52 0 98.5 19.5t82.5 54.5q50 -43 89.5 -58.5t92.5 -15.5v122q-50 5 -100 40q44 70 86 180zM172 208q0 29 13 49.5t39 40.5q69 -88 144 -154q-15 -18 -40.5 -29t-52.5 -11
q-43 0 -73 27t-30 77z" />
    <glyph glyph-name="quotesingle" unicode="'" horiz-adv-x="222" 
d="M56 452h110v270h-110v-270z" />
    <glyph glyph-name="parenleft" unicode="(" horiz-adv-x="333" 
d="M304 -84q-67 95 -105.5 191.5t-38.5 216.5t38.5 216.5t105.5 191.5h-118q-64 -89 -100 -193t-36 -215t36 -214.5t100 -193.5h118z" />
    <glyph glyph-name="parenright" unicode=")" horiz-adv-x="333" 
d="M147 -84q64 90 100 193.5t36 214.5t-36 215t-100 193h-118q68 -95 106 -191.5t38 -216.5t-38 -216.5t-106 -191.5h118z" />
    <glyph glyph-name="asterisk" unicode="*" 
d="M200 722l29 -145l-4 -5l-133 68l-26 -89l146 -18l2 -6l-106 -104l75 -57l64 134h6l64 -134l75 57l-106 104l2 6l146 18l-26 89l-133 -68l-4 5l29 145h-100z" />
    <glyph glyph-name="plus" unicode="+" horiz-adv-x="600" 
d="M239 333h-211v-122h211v-211h122v211h211v122h-211v211h-122v-211z" />
    <glyph glyph-name="comma" unicode="," horiz-adv-x="278" 
d="M77 -148h70l63 148v142h-142v-142h60z" />
    <glyph glyph-name="hyphen" unicode="-" horiz-adv-x="333" 
d="M289 217v110h-246v-110h246z" />
    <glyph glyph-name="period" unicode="." horiz-adv-x="278" 
d="M210 0v142h-142v-142h142z" />
    <glyph glyph-name="slash" unicode="/" horiz-adv-x="278" 
d="M336 732h-122l-272 -742h122z" />
    <glyph glyph-name="zero" unicode="0" horiz-adv-x="556" 
d="M36 240q0 -117 63 -183.5t179 -66.5t179 66.5t63 183.5v242q0 117 -63 183.5t-179 66.5t-179 -66.5t-63 -183.5v-242zM168 467q0 85 26 118t84 33t84 -33t26 -118v-212q0 -85 -26 -118t-84 -33t-84 33t-26 118v212z" />
    <glyph glyph-name="one" unicode="1" horiz-adv-x="556" 
d="M235 0h126v732h-79q-4 -5 -9 -12q-28 -37 -56 -56.5t-93 -32.5v-79h111v-552z" />
    <glyph glyph-name="two" unicode="2" horiz-adv-x="556" 
d="M495 0v114h-288q25 26 85 82q50 46 83.5 80t64 73.5t48.5 83.5t18 89q0 101 -64.5 155.5t-173.5 54.5q-51 0 -93 -16t-71.5 -44t-45 -64.5t-15.5 -76.5v-34h132v26q0 42 27 68.5t76 26.5q47 0 71.5 -27t24.5 -72q0 -30 -12.5 -58t-46 -68t-95.5 -101.5t-180 -174.5v-117
h455z" />
    <glyph glyph-name="three" unicode="3" horiz-adv-x="556" 
d="M34 212q0 -104 61 -163t180 -59q102 0 168.5 56t66.5 159q0 64 -24.5 108.5t-79.5 65.5q41 21 64 64.5t23 92.5q0 94 -61.5 145t-162.5 51q-96 0 -157.5 -51t-62.5 -147h132q2 37 26 60.5t61 23.5q44 0 68.5 -24t24.5 -63q0 -50 -29.5 -71.5t-99.5 -21.5v-114
q76 -1 111 -27t35 -86q0 -48 -27.5 -77.5t-77.5 -29.5q-55 0 -81 26t-26 82h-132z" />
    <glyph glyph-name="four" unicode="4" horiz-adv-x="556" 
d="M110 292l205 282h2v-282h-207zM0 306v-116h317v-190h126v190h101v102h-101v430h-137z" />
    <glyph glyph-name="five" unicode="5" horiz-adv-x="556" 
d="M35 207q0 -43 12.5 -81.5t40 -69t73.5 -48.5t111 -18q126 0 184 69t58 199q0 118 -48.5 181t-158.5 63q-38 0 -69 -11t-62 -33v150h303v114h-417v-378h109q41 56 106 56q55 0 80 -35t25 -104q0 -80 -25 -118.5t-87 -38.5q-48 0 -75.5 26t-27.5 77h-132z" />
    <glyph glyph-name="six" unicode="6" horiz-adv-x="556" 
d="M168 295q31 29 56.5 44t53.5 15q48 0 76 -29.5t28 -87.5q0 -63 -26.5 -98t-77.5 -35q-58 0 -84 33t-26 118v40zM501 533q-7 96 -67 147.5t-156 51.5q-116 0 -179 -66.5t-63 -183.5v-242q0 -117 63 -183.5t179 -66.5q119 0 177.5 68t58.5 184q0 92 -50 153t-141 61
q-42 0 -81 -14.5t-74 -41.5v67q0 85 26 118t84 33q37 0 63.5 -24t27.5 -61h132z" />
    <glyph glyph-name="seven" unicode="7" horiz-adv-x="556" 
d="M30 608h317l-200 -608h144l195 656v66h-456v-114z" />
    <glyph glyph-name="eight" unicode="8" horiz-adv-x="556" 
d="M388 209q0 -50 -26 -77.5t-84 -27.5t-84 27.5t-26 77.5t30 80.5t80 30.5t80 -30.5t30 -80.5zM370 525q0 -38 -27 -64.5t-65 -26.5t-65 26.5t-27 64.5q0 39 26 66t66 27t66 -27t26 -66zM520 205q0 64 -25 108t-80 66q41 21 64 64.5t23 92.5q0 96 -62.5 146t-161.5 50
t-161.5 -50t-62.5 -146q0 -49 23 -92.5t64 -64.5q-55 -22 -80 -66t-25 -108q0 -103 67.5 -159t174.5 -56t174.5 56t67.5 159z" />
    <glyph glyph-name="nine" unicode="9" horiz-adv-x="556" 
d="M388 427q-31 -29 -56.5 -44t-53.5 -15q-48 0 -76 29.5t-28 87.5q0 63 26.5 98t77.5 35q58 0 84 -33t26 -118v-40zM55 189q7 -96 67 -147.5t156 -51.5q116 0 179 66.5t63 183.5v242q0 117 -63 183.5t-179 66.5q-118 0 -177 -68t-59 -184q0 -92 50 -153t141 -61q42 0 81 15
t74 41v-67q0 -85 -26 -118t-84 -33q-37 0 -63 24t-28 61h-132z" />
    <glyph glyph-name="colon" unicode=":" horiz-adv-x="278" 
d="M210 0v142h-142v-142h142zM210 300v142h-142v-142h142z" />
    <glyph glyph-name="semicolon" unicode=";" horiz-adv-x="278" 
d="M77 -148h70l63 148v142h-142v-142h60zM210 300v142h-142v-142h142z" />
    <glyph glyph-name="less" unicode="&#x3c;" horiz-adv-x="600" 
d="M572 108l-389 164l389 164v117l-544 -233v-96l544 -233v117z" />
    <glyph glyph-name="equal" unicode="=" horiz-adv-x="600" 
d="M572 455h-544v-122h544v122zM572 211h-544v-122h544v122z" />
    <glyph glyph-name="greater" unicode="&#x3e;" horiz-adv-x="600" 
d="M28 -9l544 233v96l-544 233v-117l389 -164l-389 -164v-117z" />
    <glyph glyph-name="question" unicode="?" horiz-adv-x="444" 
d="M125 542q2 33 28 60.5t56 27.5q25 0 44 -16.5t19 -41.5q0 -20 -17 -49.5t-51 -77.5q-31 -43 -45.5 -67.5t-14.5 -39.5v-98h110v50q0 26 17 54.5t51 72.5q38 48 57 80.5t19 64.5q0 79 -55.5 124.5t-131.5 45.5t-129 -41.5t-72 -116.5zM270 0v142h-142v-142h142z" />
    <glyph glyph-name="at" unicode="@" horiz-adv-x="800" 
d="M411 452q35 0 57 -22.5t22 -58.5q0 -47 -31 -83t-78 -36q-35 0 -56 23t-21 60q0 45 31 81t76 36zM518 492q-40 62 -119 62q-46 0 -84 -19.5t-65 -53t-41.5 -76t-14.5 -87.5q0 -34 13 -66.5t35 -57t51 -38.5t61 -14q26 0 53 15.5t47 37.5l2 -1q1 -24 16.5 -38t37.5 -14
q27 0 69.5 15.5t84.5 49.5t70.5 90t28.5 133q0 67 -28.5 123t-77.5 96.5t-111.5 61.5t-128.5 21q-77 0 -146.5 -28t-122 -79t-82 -119t-29.5 -146t30 -146.5t83 -118.5t123.5 -77.5t148.5 -27.5q92 0 168.5 40t128.5 114h-92q-39 -33 -90 -51.5t-107 -18.5q-63 0 -116.5 20
t-92.5 57.5t-60.5 91t-21.5 117.5q0 61 19.5 114t55.5 92t87.5 60.5t112.5 21.5q118 0 191.5 -64.5t73.5 -181.5q0 -75 -31.5 -118.5t-69.5 -43.5q-15 0 -15 19q0 9 5 28q1 7 2 11l50 244h-90z" />
    <glyph glyph-name="A" unicode="A" horiz-adv-x="556" 
d="M278 566h2l67 -292h-137zM146 0l39 152h191l35 -152h132l-174 722h-177l-179 -722h133z" />
    <glyph glyph-name="B" unicode="B" horiz-adv-x="556" 
d="M62 0h202q113 0 177.5 52t64.5 156q0 66 -23.5 103.5t-82.5 74.5q89 54 89 150q0 92 -60.5 139t-172.5 47h-194v-722zM200 322h48q56 0 88 -26t32 -77q0 -48 -28.5 -76.5t-81.5 -28.5h-58v208zM200 608h55q48 0 72 -23t24 -64q0 -37 -28.5 -61t-74.5 -24h-48v172z" />
    <glyph glyph-name="C" unicode="C" horiz-adv-x="556" 
d="M188 508q0 57 23 79.5t67 22.5q45 0 67.5 -22.5t22.5 -79.5v-20h138v2q0 65 -16.5 111.5t-46.5 75.5t-71.5 42t-93.5 13t-93.5 -13t-71.5 -42t-46.5 -75.5t-16.5 -111.5v-258q0 -65 16.5 -111.5t46.5 -75.5t71.5 -42t93.5 -13t93.5 13t71.5 42t46.5 75.5t16.5 111.5v30
h-138v-48q0 -57 -22.5 -79.5t-67.5 -22.5q-44 0 -67 22.5t-23 79.5v294z" />
    <glyph glyph-name="D" unicode="D" horiz-adv-x="556" 
d="M62 0h192q122 0 185 58.5t67 191.5v222q-4 133 -67 191.5t-185 58.5h-192v-722zM200 600h48q64 0 92 -33.5t28 -110.5v-190q0 -78 -30 -111t-90 -33h-48v478z" />
    <glyph glyph-name="E" unicode="E" 
d="M450 0v122h-250v190h183v122h-183v166h240v122h-378v-722h388z" />
    <glyph glyph-name="F" unicode="F" horiz-adv-x="444" 
d="M200 0v312h174v122h-174v166h222v122h-360v-722h138z" />
    <glyph glyph-name="G" unicode="G" horiz-adv-x="556" 
d="M428 0h72v370h-235v-114h97v-44q0 -46 -22.5 -73t-61.5 -27q-44 0 -67 22.5t-23 79.5v294q0 57 23 79.5t67 22.5q40 0 62 -28t22 -95h138q-7 245 -222 245q-52 0 -93.5 -13t-71.5 -42t-46.5 -75.5t-16.5 -111.5v-258q0 -65 16.5 -111.5t46.5 -75.5t71.5 -42t93.5 -13
q37 0 68 18t61 52z" />
    <glyph glyph-name="H" unicode="H" horiz-adv-x="611" 
d="M208 0v312h195v-312h138v722h-138v-288h-195v288h-138v-722h138z" />
    <glyph glyph-name="I" unicode="I" horiz-adv-x="278" 
d="M208 0v722h-138v-722h138z" />
    <glyph glyph-name="J" unicode="J" horiz-adv-x="333" 
d="M125 722v-541q0 -40 -15.5 -54.5t-62.5 -14.5q-7 0 -22 2q-9 1 -15 1v-122q15 -2 31.5 -2.5t36.5 -0.5q88 0 136.5 44.5t48.5 118.5v569h-138z" />
    <glyph glyph-name="K" unicode="K" horiz-adv-x="556" 
d="M200 0v221l54 82l144 -303h155l-207 431l186 291h-151l-179 -298h-2v298h-138v-722h138z" />
    <glyph glyph-name="L" unicode="L" horiz-adv-x="444" 
d="M422 0v122h-222v600h-138v-722h360z" />
    <glyph glyph-name="M" unicode="M" horiz-adv-x="778" 
d="M188 0v568h2l147 -568h104l147 568h2v-568h118v722h-193l-125 -474h-2l-125 474h-193v-722h118z" />
    <glyph glyph-name="N" unicode="N" horiz-adv-x="611" 
d="M196 0v466h2l211 -466h132v722h-126v-428h-2l-192 428h-151v-722h126z" />
    <glyph glyph-name="O" unicode="O" horiz-adv-x="556" 
d="M50 232q0 -65 16.5 -111.5t46.5 -75.5t71.5 -42t93.5 -13t93.5 13t71.5 42t46.5 75.5t16.5 111.5v258q0 65 -16.5 111.5t-46.5 75.5t-71.5 42t-93.5 13t-93.5 -13t-71.5 -42t-46.5 -75.5t-16.5 -111.5v-258zM188 508q0 57 23 79.5t67 22.5q45 0 67.5 -22.5t22.5 -79.5
v-294q0 -57 -22.5 -79.5t-67.5 -22.5q-44 0 -67 22.5t-23 79.5v294z" />
    <glyph glyph-name="P" unicode="P" horiz-adv-x="556" 
d="M208 0v290h61q126 0 189.5 56t63.5 160t-63.5 160t-189.5 56h-199v-722h138zM208 608h74q102 0 102 -102t-102 -102h-74v204z" />
    <glyph glyph-name="Q" unicode="Q" horiz-adv-x="556" 
d="M549 67q-41 1 -72 24q29 55 29 141v258q0 65 -16.5 111.5t-46.5 75.5t-71.5 42t-93.5 13t-93.5 -13t-71.5 -42t-46.5 -75.5t-16.5 -111.5v-258q0 -65 16.5 -111.5t46.5 -75.5t71.5 -42t93.5 -13q76 0 126 28q28 -34 63 -52.5t82 -18.5v120zM269 180q16 -6 30.5 -20
t30.5 -37q-19 -11 -52 -11q-44 0 -67 22.5t-23 79.5v294q0 57 23 79.5t67 22.5q45 0 67.5 -22.5t22.5 -79.5v-274h-2q-19 28 -42 45t-55 21v-120z" />
    <glyph glyph-name="R" unicode="R" horiz-adv-x="556" 
d="M534 0l-136 322q56 21 82.5 67.5t26.5 116.5q0 104 -61.5 160t-183.5 56h-200v-722h138v294h66l120 -294h148zM200 608h71q47 0 72.5 -24.5t25.5 -75.5t-25.5 -75.5t-72.5 -24.5h-71v200z" />
    <glyph glyph-name="S" unicode="S" horiz-adv-x="556" 
d="M491 557q-19 80 -76 127.5t-146 47.5q-105 0 -161 -53.5t-56 -148.5q0 -39 15 -70.5t39.5 -55t52.5 -41t70 -40.5q67 -37 99 -64.5t32 -68.5q0 -39 -24 -62.5t-61 -23.5q-35 0 -65.5 29t-41.5 89l-136 -29q27 -103 88 -153t148 -50q108 0 169 56t61 150q0 47 -17 84
t-45 64.5t-57.5 46t-75.5 43.5q-58 31 -85.5 53t-27.5 52q0 37 20 58t56 21t60 -23t41 -74z" />
    <glyph glyph-name="T" unicode="T" 
d="M20 722v-122h161v-600h138v600h161v122h-460z" />
    <glyph glyph-name="U" unicode="U" horiz-adv-x="611" 
d="M70 722v-506q0 -115 62 -170.5t173 -55.5t173.5 55.5t62.5 170.5v506h-138v-505q0 -105 -98 -105q-97 0 -97 105v505h-138z" />
    <glyph glyph-name="V" unicode="V" horiz-adv-x="556" 
d="M200 0h157l184 722h-135l-126 -516h-2l-127 516h-136z" />
    <glyph glyph-name="W" unicode="W" horiz-adv-x="833" 
d="M174 0h132l109 494h2l101 -494h133l158 722h-129l-96 -472h-2l-100 472h-133l-99 -472h-2l-97 472h-128z" />
    <glyph glyph-name="X" unicode="X" horiz-adv-x="556" 
d="M174 722h-148l177 -342l-194 -380h149l120 255l120 -255h149l-192 380l175 342h-148l-104 -216z" />
    <glyph glyph-name="Y" unicode="Y" horiz-adv-x="556" 
d="M159 722h-147l197 -430v-292h138v292l197 430h-147l-117 -291z" />
    <glyph glyph-name="Z" unicode="Z" 
d="M61 600h245l-273 -483v-117h434v122h-279l273 484v116h-400v-122z" />
    <glyph glyph-name="bracketleft" unicode="[" horiz-adv-x="333" 
d="M284 -74v60h-124v676h124v60h-234v-796h234z" />
    <glyph glyph-name="backslash" unicode="\" horiz-adv-x="278" 
d="M214 -10h122l-272 742h-122z" />
    <glyph glyph-name="bracketright" unicode="]" horiz-adv-x="333" 
d="M49 722v-60h124v-676h-124v-60h234v796h-234z" />
    <glyph glyph-name="asciicircum" unicode="^" horiz-adv-x="600" 
d="M169 320l131 282l129 -282h119l-194 402h-108l-194 -402h117z" />
    <glyph glyph-name="underscore" unicode="_" 
d="M500 -125v50h-500v-50h500z" />
    <glyph glyph-name="grave" unicode="`" horiz-adv-x="278" 
d="M-24 756l147 -146h101l-93 146h-155z" />
    <glyph glyph-name="a" unicode="a" 
d="M174 385q0 29 20.5 48t49.5 19t47 -16t18 -49v-40q-65 -19 -114 -39t-85.5 -46t-57 -61t-20.5 -81q0 -64 33 -97t92 -33q45 0 82.5 16.5t67.5 46.5q2 -8 5 -27q2 -16 4 -26h126q-7 25 -7 44v345q0 77 -44.5 121t-140.5 44q-82 0 -139 -41.5t-63 -127.5h126zM309 134
q-25 -25 -46.5 -37.5t-48.5 -12.5q-26 0 -41 15t-15 42q0 39 43 70.5t108 54.5v-132z" />
    <glyph glyph-name="b" unicode="b" 
d="M186 421q36 39 76 39q29 0 45.5 -27.5t16.5 -102.5v-116q0 -75 -16.5 -102.5t-45.5 -27.5q-40 0 -76 39v298zM176 0v66h2q19 -29 57 -52.5t77 -23.5q72 0 105 54t33 162v132q0 108 -33 162t-105 54q-25 0 -52.5 -13t-73.5 -47v228h-126v-722h116z" />
    <glyph glyph-name="c" unicode="c" 
d="M449 356q-1 101 -52.5 149.5t-146.5 48.5q-97 0 -148.5 -50.5t-51.5 -155.5v-152q0 -105 51.5 -155.5t148.5 -50.5t148.5 50.5t51.5 155.5v2h-126v-34q0 -31 -20 -47.5t-54 -16.5t-54 16.5t-20 47.5v216q0 31 20 47.5t54 16.5t54 -16.5t20 -47.5v-24h125z" />
    <glyph glyph-name="d" unicode="d" 
d="M314 123q-36 -39 -76 -39q-29 0 -45.5 27.5t-16.5 102.5v116q0 75 16.5 102.5t45.5 27.5q40 0 76 -39v-298zM440 0v722h-126v-228q-46 34 -73.5 47t-52.5 13q-72 0 -105 -54t-33 -162v-132q0 -108 33 -162t105 -54q39 0 77.5 23.5t56.5 52.5h2v-66h116z" />
    <glyph glyph-name="e" unicode="e" 
d="M450 242v127q0 83 -56 134t-144 51q-91 0 -145.5 -52t-54.5 -141v-178q0 -89 54.5 -141t145.5 -52q94 0 144.5 46.5t55.5 131.5h-126q0 -34 -18 -55t-56 -21q-33 0 -53.5 19.5t-20.5 58.5v72h274zM176 344v30q0 37 18.5 57.5t55.5 20.5t55.5 -20.5t18.5 -57.5v-30h-148z
" />
    <glyph glyph-name="f" unicode="f" horiz-adv-x="278" 
d="M270 726q-42 6 -60 6q-73 0 -109 -35t-36 -125v-52h-57v-102h57v-418h126v418h75v102h-75v56q0 21 10.5 33.5t32.5 12.5h36v104z" />
    <glyph glyph-name="g" unicode="g" 
d="M292 347q0 -69 -15 -92t-57 -23q-60 0 -60 102q0 64 15 91t51 27q66 0 66 -105zM478 554q-33 0 -58.5 -15.5t-51.5 -47.5q-23 29 -62.5 46t-79.5 17q-51 0 -87 -15t-58 -42.5t-31.5 -64.5t-9.5 -83q0 -70 18.5 -115t63.5 -74q-34 -21 -55 -42t-21 -49q0 -25 14 -43.5
t38 -33.5l-8 -5q-31 -20 -49.5 -37.5t-18.5 -42.5q0 -46 54.5 -72.5t153.5 -26.5q113 0 177.5 34.5t64.5 102.5q0 44 -19.5 70.5t-51 39t-65 16.5t-82.5 6q-51 1 -74.5 6t-23.5 22q0 9 14 23q6 6 8 9q22 -7 52 -7q92 0 137 55t45 159q0 18 -3 35t-9 42q0 2 -4 19q6 2 16 5
q18 7 27 7q7 0 27 -5q10 -3 12 -3v110zM306 -36q27 -2 36.5 -8.5t9.5 -20.5q0 -43 -95 -43q-115 0 -115 40q0 12 5.5 20.5t17.5 20.5l3 3z" />
    <glyph glyph-name="h" unicode="h" 
d="M186 0v411q26 24 45.5 36.5t36.5 12.5q25 0 35.5 -15.5t10.5 -44.5v-400h126v414q0 74 -29 107t-88 33q-36 0 -68.5 -18.5t-68.5 -53.5v240h-126v-722h126z" />
    <glyph glyph-name="i" unicode="i" horiz-adv-x="278" 
d="M76 544v-544h126v544h-126zM202 638v114h-126v-114h126z" />
    <glyph glyph-name="j" unicode="j" horiz-adv-x="278" 
d="M76 544v-572q0 -26 -17 -38t-57 -12v-111q21 -3 46 -3q68 0 111 37t43 111v588h-126zM202 638v114h-126v-114h126z" />
    <glyph glyph-name="k" unicode="k" 
d="M192 0v166l63 89l92 -255h133l-136 360l125 184h-141l-134 -211h-2v389h-126v-722h126z" />
    <glyph glyph-name="l" unicode="l" horiz-adv-x="278" 
d="M76 0h126v722h-126v-722z" />
    <glyph glyph-name="m" unicode="m" horiz-adv-x="722" 
d="M60 0h126v411q13 18 36 33.5t42 15.5q16 0 25 -10.5t9 -35.5v-414h126v411q13 17 37.5 33t41.5 16q16 0 24.5 -10t8.5 -36v-414h126v410q0 144 -115 144q-37 0 -67.5 -21t-66.5 -61q-11 38 -36 60t-60 22q-36 0 -66 -18t-69 -54v62h-122v-544z" />
    <glyph glyph-name="n" unicode="n" 
d="M186 0v411q26 24 45.5 36.5t36.5 12.5q25 0 35.5 -15.5t10.5 -44.5v-400h126v414q0 74 -29 107t-88 33q-36 0 -68 -18t-73 -54v62h-122v-544h126z" />
    <glyph glyph-name="o" unicode="o" 
d="M50 196q0 -105 51.5 -155.5t148.5 -50.5t148.5 50.5t51.5 155.5v152q0 105 -51.5 155.5t-148.5 50.5t-148.5 -50.5t-51.5 -155.5v-152zM176 380q0 31 20 47.5t54 16.5t54 -16.5t20 -47.5v-216q0 -31 -20 -47.5t-54 -16.5t-54 16.5t-20 47.5v216z" />
    <glyph glyph-name="p" unicode="p" 
d="M186 421q36 39 76 39q29 0 45.5 -27.5t16.5 -102.5v-116q0 -75 -16.5 -102.5t-45.5 -27.5q-40 0 -76 39v298zM60 544v-736h126v242q46 -33 73.5 -46.5t52.5 -13.5q72 0 105 54t33 162v132q0 108 -33 162t-105 54q-39 0 -77 -23.5t-57 -52.5h-2v66h-116z" />
    <glyph glyph-name="q" unicode="q" 
d="M314 123q-36 -39 -76 -39q-29 0 -45.5 27.5t-16.5 102.5v116q0 75 16.5 102.5t45.5 27.5q40 0 76 -39v-298zM324 544v-66h-2q-18 29 -56.5 52.5t-77.5 23.5q-72 0 -105 -54t-33 -162v-132q0 -108 33 -162t105 -54q25 0 52.5 13.5t73.5 46.5v-242h126v736h-116z" />
    <glyph glyph-name="r" unicode="r" horiz-adv-x="333" 
d="M186 0v372q0 24 16.5 42t45.5 18q19 0 59 -12l8 -2v136q-46 0 -77 -20t-53 -62h-2v72h-123v-544h126z" />
    <glyph glyph-name="s" unicode="s" horiz-adv-x="444" 
d="M404 418q-24 63 -72.5 99.5t-117.5 36.5q-72 0 -122 -39.5t-50 -112.5q0 -37 13 -65t33.5 -47t43.5 -31.5t59 -29.5q50 -23 73.5 -41t23.5 -48q0 -22 -16.5 -35t-44.5 -13q-36 0 -59.5 22.5t-32.5 61.5l-113 -31q42 -93 90.5 -124t114.5 -31q81 0 131 43t50 122
q0 34 -13.5 60t-35 45t-44.5 32t-60 31q-49 24 -71 40t-22 40q0 21 14.5 35t36.5 14q62 0 87 -74z" />
    <glyph glyph-name="t" unicode="t" horiz-adv-x="278" 
d="M56 418v-320q0 -56 36 -82t100 -26q42 0 72 5v106q-8 -1 -25 -1q-26 0 -41.5 10t-15.5 30v278h81v102h-81v148h-126v-148h-50v-102h50z" />
    <glyph glyph-name="u" unicode="u" 
d="M314 544v-411q-26 -23 -45.5 -36t-36.5 -13q-24 0 -35 15.5t-11 44.5v400h-126v-414q0 -74 29 -107t88 -33q36 0 68 18t73 54v-62h122v544h-126z" />
    <glyph glyph-name="v" unicode="v" horiz-adv-x="444" 
d="M138 544h-126l148 -544h124l148 544h-126l-83 -350h-2z" />
    <glyph glyph-name="w" unicode="w" horiz-adv-x="667" 
d="M143 0h118l67 340h2l77 -340h118l128 544h-118l-69 -340h-2l-77 340h-108l-73 -340h-2l-73 340h-118z" />
    <glyph glyph-name="x" unicode="x" horiz-adv-x="444" 
d="M155 280l-149 -280h134l82 176l82 -176h134l-147 279l138 265h-134l-73 -156l-71 156h-134z" />
    <glyph glyph-name="y" unicode="y" horiz-adv-x="444" 
d="M32 -190q28 -2 40 -2q48 0 82 10t58.5 32t42.5 59t33 93l145 542h-128l-79 -360h-2l-85 360h-128l126 -439q23 -81 23 -115q0 -22 -26.5 -47t-64.5 -25q-25 0 -37 2v-110z" />
    <glyph glyph-name="z" unicode="z" horiz-adv-x="444" 
d="M51 434h207l-227 -326v-108h382v110h-231l231 326v108h-362v-110z" />
    <glyph glyph-name="braceleft" unicode="{" horiz-adv-x="333" 
d="M261 732h-79q-46 0 -80.5 -31t-34.5 -88v-195q0 -35 -19 -49t-52 -14v-60q33 0 52 -14t19 -49v-197q0 -57 34.5 -88t80.5 -31h79v60h-31q-53 0 -53 61v196q0 41 -20.5 63t-58.5 28v2q38 6 58.5 28t20.5 63v194q0 61 53 61h31v60z" />
    <glyph glyph-name="bar" unicode="|" horiz-adv-x="222" 
d="M50 -10h122v742h-122v-742z" />
    <glyph glyph-name="braceright" unicode="}" horiz-adv-x="333" 
d="M72 -84h79q46 0 80.5 31t34.5 88v195q0 35 19 49t52 14v60q-33 0 -52 14t-19 49v197q0 57 -34.5 88t-80.5 31h-79v-60h31q53 0 53 -61v-196q0 -41 20.5 -63t58.5 -28v-2q-38 -6 -58.5 -28t-20.5 -63v-194q0 -61 -53 -61h-31v-60z" />
    <glyph glyph-name="asciitilde" unicode="~" horiz-adv-x="600" 
d="M510 369l-1 -1q-25 -38 -44 -57.5t-44 -19.5q-19 0 -42 8t-62 26q-44 19 -74 29t-56 10q-49 0 -81 -26t-54 -67l39 -96q16 34 36.5 55.5t48.5 21.5q35 0 64 -9.5t63 -26.5v0q36 -19 59 -28t52 -9q45 0 74.5 24t59.5 68z" />
    <glyph glyph-name="exclamdown" unicode="&#xa1;" horiz-adv-x="278" 
d="M212 -178l-28 478h-90l-28 -478h146zM68 544v-142h142v142h-142z" />
    <glyph glyph-name="cent" unicode="&#xa2;" horiz-adv-x="556" 
d="M193 135q-7 13 -7 29v216q0 64 82 64h2zM479 356q-1 136 -96 176l39 144h-89l-34 -124q-10 2 -31 2q-103 0 -155.5 -50t-52.5 -156v-152q0 -68 23.5 -113t67.5 -69l-42 -154h89l36 132h3q22 -2 31 -2q105 0 158.5 50t53.5 156v2h-126v-34q0 -64 -86 -64q-8 0 -12 1
l82 319q16 -16 16 -40v-24h125z" />
    <glyph glyph-name="sterling" unicode="&#xa3;" horiz-adv-x="556" 
d="M112 318q3 -24 3 -44q0 -72 -23.5 -116t-68.5 -46v-122q41 0 70.5 14.5t70.5 50.5q34 -21 57.5 -33.5t43.5 -19.5t40 -9.5t47 -2.5q54 0 90 18.5t56 50t27.5 71t7.5 88.5h-120q-3 -58 -19 -86t-52 -28q-34 0 -62.5 11.5t-61.5 32.5q7 16 11.5 39.5t7.5 50t4.5 47
t1.5 33.5h120v88h-132l-2 10q-13 75 -13 116t22.5 65.5t61.5 24.5q48 0 69.5 -26.5t25.5 -77.5h126q0 103 -57.5 158.5t-175.5 55.5q-87 0 -145.5 -51t-58.5 -144q0 -28 4 -60.5t11 -70.5h-83v-88h96z" />
    <glyph glyph-name="currency" unicode="&#xa4;" horiz-adv-x="556" 
d="M537 160l-56 56q22 26 33.5 64.5t11.5 80.5t-11.5 80.5t-33.5 64.5l56 56l-58 58l-57 -58q-24 23 -62.5 36t-81.5 13t-81.5 -13t-62.5 -36l-57 58l-58 -58l56 -56q-22 -26 -33.5 -64.5t-11.5 -80.5t11.5 -80.5t33.5 -64.5l-56 -56l58 -58l57 58q24 -23 62.5 -36t81.5 -13
t81.5 13t62.5 36l57 -58zM414 361q0 -63 -37 -105.5t-99 -42.5t-99 42.5t-37 105.5q0 64 37 106t99 42t99 -42t37 -106z" />
    <glyph glyph-name="yen" unicode="&#xa5;" horiz-adv-x="556" 
d="M499 452h-86l125 270h-122l-136 -322l-140 322h-122l125 -270h-86v-88h126l32 -72h-158v-88h162v-204h118v204h162v88h-158l32 72h126v88z" />
    <glyph glyph-name="brokenbar" unicode="&#xa6;" horiz-adv-x="222" 
d="M50 -10h122v284h-122v-284zM50 448h122v284h-122v-284z" />
    <glyph glyph-name="section" unicode="&#xa7;" 
d="M402 652q-33 42 -70.5 61t-88.5 19q-57 0 -95.5 -33.5t-38.5 -82.5q0 -33 11 -57.5t36 -54.5q-51 -8 -77.5 -37.5t-26.5 -92.5q0 -37 33.5 -78.5t98.5 -102.5q56 -53 83.5 -86t27.5 -59q0 -22 -15 -35t-36 -13q-31 0 -55 15.5t-35 38.5l-68 -53q38 -44 70.5 -64.5
t90.5 -20.5q60 0 102 34t42 94q0 32 -14 61.5t-38 55.5q49 9 79 38t30 76q0 51 -38 98t-108 111q-50 46 -73.5 72.5t-23.5 49.5q0 18 13.5 30t33.5 12q24 0 43.5 -13.5t38.5 -36.5zM352 271q0 -19 -10.5 -31.5t-28.5 -12.5q-14 0 -38.5 19t-64.5 61q-36 37 -49 58t-13 36
q1 16 12.5 26.5t26.5 10.5q29 0 98 -75q41 -44 54 -61.5t13 -30.5z" />
    <glyph glyph-name="dieresis" unicode="&#xa8;" horiz-adv-x="278" 
d="M-16 732v-114h120v114h-120zM174 732v-114h120v114h-120z" />
    <glyph glyph-name="copyright" unicode="&#xa9;" horiz-adv-x="800" 
d="M400 -10q75 0 144.5 25.5t123.5 74t84.5 117.5t30.5 154t-31 154.5t-84.5 117.5t-123 73.5t-144.5 25.5t-144.5 -25.5t-123 -74t-84.5 -117.5t-31 -154t31 -154.5t84.5 -117.5t123 -73.5t144.5 -25.5zM669 361q0 -61 -21 -113.5t-58 -90.5t-86 -58.5t-104 -20.5
q-56 0 -105 20.5t-86 58.5t-57.5 90t-20.5 114t20.5 114t57.5 90t86 58.5t105 20.5q55 0 104 -20.5t86 -58.5t58 -90.5t21 -113.5zM504 305q-4 -35 -27.5 -52t-61.5 -17q-46 0 -74.5 37t-28.5 93q0 59 26.5 92.5t74.5 33.5q35 0 60 -15.5t31 -48.5h86q-12 73 -60 112.5
t-117 39.5q-94 0 -149.5 -60.5t-55.5 -155.5q0 -93 56 -154q28 -29 66.5 -45.5t84.5 -16.5q67 0 117 41.5t62 115.5h-90z" />
    <glyph glyph-name="ordfeminine" unicode="&#xaa;" horiz-adv-x="300" 
d="M106 627q0 15 12 25t30 10q34 0 34 -30v-22q-83 -25 -127.5 -55.5t-44.5 -82.5q0 -39 21.5 -58.5t59.5 -19.5q30 0 54 10.5t40 27.5q1 -7 2 -13q2 -13 3 -19h86q-4 16 -4 26v207q0 47 -29 73t-92 26q-56 0 -91 -23q-19 -13 -30.5 -33t-13.5 -49h90zM182 490
q-20 -30 -54 -30q-12 0 -20 6.5t-8 18.5q0 20 21 33.5t61 29.5v-58z" />
    <glyph glyph-name="guillemotleft" unicode="&#xab;" horiz-adv-x="556" 
d="M386 112h110l-122 160l122 160h-110l-122 -160zM182 112h110l-122 160l122 160h-110l-122 -160z" />
    <glyph glyph-name="logicalnot" unicode="&#xac;" horiz-adv-x="600" 
d="M450 89h122v366h-544v-122h422v-244z" />
    <glyph glyph-name="minus" unicode="&#xad;" horiz-adv-x="600" 
d="M572 211v122h-544v-122h544z" />
    <glyph glyph-name="minus" unicode="&#x2212;" horiz-adv-x="600" 
d="M572 211v122h-544v-122h544z" />
    <glyph glyph-name="registered" unicode="&#xae;" horiz-adv-x="800" 
d="M337 325h41l87 -167h97l-94 176q46 3 73.5 29t27.5 79q0 67 -41.5 95t-125.5 28h-153v-407h88v167zM337 493h62q44 0 61 -9t17 -33q0 -31 -13 -42.5t-50 -11.5h-77v96zM400 -10q75 0 144.5 25.5t123.5 74t84.5 117.5t30.5 154t-31 154.5t-84.5 117.5t-123 73.5
t-144.5 25.5t-144.5 -25.5t-123 -74t-84.5 -117.5t-31 -154t31 -154.5t84.5 -117.5t123 -73.5t144.5 -25.5zM669 361q0 -61 -21 -113.5t-58 -90.5t-86 -58.5t-104 -20.5q-56 0 -105 20.5t-86 58.5t-57.5 90t-20.5 114t20.5 114t57.5 90t86 58.5t105 20.5q55 0 104 -20.5
t86 -58.5t58 -90.5t21 -113.5z" />
    <glyph glyph-name="macron" unicode="&#xaf;" horiz-adv-x="278" 
d="M313 640v74h-348v-74h348z" />
    <glyph glyph-name="degree" unicode="&#xb0;" horiz-adv-x="400" 
d="M200 502q-35 0 -58.5 25t-23.5 62t23.5 62t58.5 25t58.5 -25t23.5 -62t-23.5 -62t-58.5 -25zM200 446q61 0 102.5 41.5t41.5 101.5t-41.5 101.5t-102.5 41.5t-102.5 -41.5t-41.5 -101.5t41.5 -101.5t102.5 -41.5z" />
    <glyph glyph-name="plusminus" unicode="&#xb1;" horiz-adv-x="600" 
d="M239 410h-211v-122h211v-134h122v134h211v122h-211v134h-122v-134zM28 0h544v122h-544v-122z" />
    <glyph glyph-name="twosuperior" unicode="&#xb2;" horiz-adv-x="333" 
d="M311 292v74h-179q12 11 44 39q68 57 105 102.5t37 98.5q0 61 -42 93.5t-113 32.5q-66 0 -106 -35.5t-40 -84.5v-21h90v16q0 21 16 36t47 15q29 0 43.5 -15t14.5 -39q0 -18 -8 -34.5t-30 -41t-60.5 -59.5t-114.5 -102v-75h296z" />
    <glyph glyph-name="threesuperior" unicode="&#xb3;" horiz-adv-x="333" 
d="M10 420q0 -62 40 -98t117 -36q66 0 109.5 34t43.5 96q0 39 -16 65t-52 39q27 13 41.5 39t14.5 56q0 56 -40 86.5t-105 30.5q-62 0 -102 -31t-41 -92h90q1 21 15.5 35t36.5 14q25 0 40.5 -13.5t15.5 -32.5q0 -30 -18.5 -42t-60.5 -12v-74q47 0 69 -14.5t22 -49.5
q0 -27 -17 -43.5t-48 -16.5q-35 0 -50 14t-15 46h-90z" />
    <glyph glyph-name="acute" unicode="&#xb4;" horiz-adv-x="278" 
d="M147 756l-93 -146h101l147 146h-155z" />
    <glyph glyph-name="mu" unicode="&#xb5;" 
d="M314 544v-411q-26 -23 -45.5 -36t-36.5 -13q-24 0 -35 15.5t-11 44.5v400h-126v-736h126v182q33 3 63 21t69 51v-62h122v544h-126z" />
    <glyph glyph-name="paragraph" unicode="&#xb6;" horiz-adv-x="556" 
d="M190 -84h110v722h68v-722h110v722h68v84h-322q-112 0 -163 -44t-51 -135q0 -80 48 -126.5t132 -46.5v-454z" />
    <glyph glyph-name="periodcentered" unicode="&#xb7;" horiz-adv-x="278" 
d="M139 348q-33 0 -54.5 -23t-21.5 -53t21.5 -53t54.5 -23t54.5 23t21.5 53t-21.5 53t-54.5 23z" />
    <glyph glyph-name="periodcentered" unicode="&#x2219;" horiz-adv-x="278" 
d="M139 348q-33 0 -54.5 -23t-21.5 -53t21.5 -53t54.5 -23t54.5 23t21.5 53t-21.5 53t-54.5 23z" />
    <glyph glyph-name="cedilla" unicode="&#xb8;" horiz-adv-x="278" 
d="M2 -203q63 -25 109 -25q50 0 88.5 23.5t38.5 70.5q0 35 -27 56.5t-63 21.5q-20 0 -31 -7l-2 2l42 61h-53l-59 -90l21 -20l3 1q27 7 42 7q17 0 29 -10.5t12 -26.5q0 -20 -17 -29.5t-39 -9.5q-24 0 -72 16l-3 1z" />
    <glyph glyph-name="onesuperior" unicode="&#xb9;" horiz-adv-x="333" 
d="M143 292h90v440h-62q-16 -23 -34.5 -35.5t-60.5 -20.5v-54h67v-330z" />
    <glyph glyph-name="ordmasculine" unicode="&#xba;" horiz-adv-x="300" 
d="M20 518q0 -64 33.5 -94t96.5 -30t96.5 30t33.5 94v91q0 63 -33.5 93t-96.5 30t-96.5 -30t-33.5 -93v-91zM110 620q0 38 40 38t40 -38v-114q0 -38 -40 -38t-40 38v114z" />
    <glyph glyph-name="guillemotright" unicode="&#xbb;" horiz-adv-x="556" 
d="M292 272l-122 160h-110l122 -160l-122 -160h110zM496 272l-122 160h-110l122 -160l-122 -160h110z" />
    <glyph glyph-name="onequarter" unicode="&#xbc;" horiz-adv-x="834" 
d="M540 184l100 131h2v-131h-102zM444 184v-70h198v-114h90v114h66v70h-66v249h-89zM147 292h90v440h-62q-16 -23 -34.5 -35.5t-60.5 -20.5v-54h67v-330zM153 -10h96l405 742h-96z" />
    <glyph glyph-name="onehalf" unicode="&#xbd;" horiz-adv-x="834" 
d="M147 292h90v440h-62q-16 -23 -34.5 -35.5t-60.5 -20.5v-54h67v-330zM791 0v74h-179q12 11 44 39q68 57 105 102.5t37 98.5q0 61 -42 93.5t-113 32.5q-66 0 -106 -35.5t-40 -84.5v-21h90v16q0 21 16 36t47 15q29 0 43.5 -15t14.5 -39q0 -18 -8 -34.5t-30 -41t-60.5 -59.5
t-114.5 -102v-75h296zM135 -10h96l405 742h-96z" />
    <glyph glyph-name="threequarters" unicode="&#xbe;" horiz-adv-x="834" 
d="M540 184l100 131h2v-131h-102zM444 184v-70h198v-114h90v114h66v70h-66v249h-89zM36 420q0 -62 40 -98t117 -36q66 0 109.5 34t43.5 96q0 39 -16 65t-52 39q27 13 41.5 39t14.5 56q0 56 -40 86.5t-105 30.5q-62 0 -102 -31t-41 -92h90q1 21 15.5 35t36.5 14
q25 0 40.5 -13.5t15.5 -32.5q0 -30 -18.5 -42t-60.5 -12v-74q47 0 69 -14.5t22 -49.5q0 -27 -17 -43.5t-48 -16.5q-35 0 -50 14t-15 46h-90zM173 -10h96l405 742h-96z" />
    <glyph glyph-name="questiondown" unicode="&#xbf;" horiz-adv-x="444" 
d="M319 2q-2 -33 -28 -60.5t-56 -27.5q-25 0 -44 16.5t-19 41.5q0 20 17 49.5t52 77.5q30 43 44.5 67.5t14.5 39.5v98h-110v-50q0 -26 -17 -54.5t-51 -72.5q-38 -48 -57 -80.5t-19 -64.5q0 -79 55.5 -124.5t131.5 -45.5t129 41.5t72 116.5zM174 544v-142h142v142h-142z" />
    <glyph glyph-name="Agrave" unicode="&#xc0;" horiz-adv-x="556" 
d="M115 909l147 -146h101l-93 146h-155zM278 566h2l67 -292h-137zM146 0l39 152h191l35 -152h132l-174 722h-177l-179 -722h133z" />
    <glyph glyph-name="Aacute" unicode="&#xc1;" horiz-adv-x="556" 
d="M286 909l-93 -146h101l147 146h-155zM278 566h2l67 -292h-137zM146 0l39 152h191l35 -152h132l-174 722h-177l-179 -722h133z" />
    <glyph glyph-name="Acircumflex" unicode="&#xc2;" horiz-adv-x="556" 
d="M215 909l-114 -146h113l64 82l64 -82h113l-114 146h-126zM278 566h2l67 -292h-137zM146 0l39 152h191l35 -152h132l-174 722h-177l-179 -722h133z" />
    <glyph glyph-name="Atilde" unicode="&#xc3;" horiz-adv-x="556" 
d="M396 897q-4 -19 -16.5 -31t-30.5 -12q-14 0 -53 15q-27 11 -47 16.5t-39 5.5q-50 0 -78.5 -34.5t-36.5 -87.5h63q4 19 15.5 30.5t29.5 11.5q21 0 67 -16q52 -19 80 -19q49 0 74.5 33t36.5 88h-65zM278 566h2l67 -292h-137zM146 0l39 152h191l35 -152h132l-174 722h-177
l-179 -722h133z" />
    <glyph glyph-name="Adieresis" unicode="&#xc4;" horiz-adv-x="556" 
d="M123 885v-114h120v114h-120zM313 885v-114h120v114h-120zM278 566h2l67 -292h-137zM146 0l39 152h191l35 -152h132l-174 722h-177l-179 -722h133z" />
    <glyph glyph-name="Aring" unicode="&#xc5;" horiz-adv-x="556" 
d="M277 757q44 0 76 31.5t32 75.5t-32 75.5t-76 31.5t-75 -31.5t-31 -75.5t31 -75.5t75 -31.5zM277 917q22 0 38 -15.5t16 -37.5t-16 -37.5t-38 -15.5t-37 15.5t-15 37.5t15 37.5t37 15.5zM278 566h2l67 -292h-137zM146 0l39 152h191l35 -152h132l-174 722h-177l-179 -722
h133z" />
    <glyph glyph-name="AE" unicode="&#xc6;" horiz-adv-x="1000" 
d="M466 612h18v-314h-174zM162 0l86 176h236v-176h444v122h-306v190h221v122h-221v166h294v122h-532l-370 -722h148z" />
    <glyph glyph-name="Ccedilla" unicode="&#xc7;" horiz-adv-x="556" 
d="M141 -203q63 -25 109 -25q50 0 88.5 23.5t38.5 70.5q0 35 -27 56.5t-63 21.5q-20 0 -31 -7l-2 2l42 61h-53l-59 -90l21 -20l3 1q27 7 42 7q17 0 29 -10.5t12 -26.5q0 -20 -17 -29.5t-39 -9.5q-24 0 -72 16l-3 1zM188 508q0 57 23 79.5t67 22.5q45 0 67.5 -22.5
t22.5 -79.5v-20h138v2q0 65 -16.5 111.5t-46.5 75.5t-71.5 42t-93.5 13t-93.5 -13t-71.5 -42t-46.5 -75.5t-16.5 -111.5v-258q0 -65 16.5 -111.5t46.5 -75.5t71.5 -42t93.5 -13t93.5 13t71.5 42t46.5 75.5t16.5 111.5v30h-138v-48q0 -57 -22.5 -79.5t-67.5 -22.5
q-44 0 -67 22.5t-23 79.5v294z" />
    <glyph glyph-name="Egrave" unicode="&#xc8;" 
d="M87 909l147 -146h101l-93 146h-155zM450 0v122h-250v190h183v122h-183v166h240v122h-378v-722h388z" />
    <glyph glyph-name="Eacute" unicode="&#xc9;" 
d="M258 909l-93 -146h101l147 146h-155zM450 0v122h-250v190h183v122h-183v166h240v122h-378v-722h388z" />
    <glyph glyph-name="Ecircumflex" unicode="&#xca;" 
d="M187 909l-114 -146h113l64 82l64 -82h113l-114 146h-126zM450 0v122h-250v190h183v122h-183v166h240v122h-378v-722h388z" />
    <glyph glyph-name="Edieresis" unicode="&#xcb;" 
d="M95 885v-114h120v114h-120zM285 885v-114h120v114h-120zM450 0v122h-250v190h183v122h-183v166h240v122h-378v-722h388z" />
    <glyph glyph-name="Igrave" unicode="&#xcc;" horiz-adv-x="278" 
d="M-24 909l147 -146h101l-93 146h-155zM208 0v722h-138v-722h138z" />
    <glyph glyph-name="Iacute" unicode="&#xcd;" horiz-adv-x="278" 
d="M147 909l-93 -146h101l147 146h-155zM208 0v722h-138v-722h138z" />
    <glyph glyph-name="Icircumflex" unicode="&#xce;" horiz-adv-x="278" 
d="M76 909l-114 -146h113l64 82l64 -82h113l-114 146h-126zM208 0v722h-138v-722h138z" />
    <glyph glyph-name="Idieresis" unicode="&#xcf;" horiz-adv-x="278" 
d="M-16 885v-114h120v114h-120zM174 885v-114h120v114h-120zM208 0v722h-138v-722h138z" />
    <glyph glyph-name="Eth" unicode="&#xd0;" horiz-adv-x="556" 
d="M8 312h54v-312h192q122 0 185 58.5t67 191.5v222q-4 133 -67 191.5t-185 58.5h-192v-288h-54v-122zM288 434h-88v166h48q64 0 92 -33.5t28 -110.5v-190q0 -78 -30 -111t-90 -33h-48v190h88v122z" />
    <glyph glyph-name="Ntilde" unicode="&#xd1;" horiz-adv-x="611" 
d="M424 897q-4 -19 -16.5 -31t-30.5 -12q-14 0 -53 15q-27 11 -47 16.5t-39 5.5q-50 0 -78.5 -34.5t-36.5 -87.5h63q4 19 15.5 30.5t29.5 11.5q21 0 67 -16q52 -19 80 -19q49 0 74.5 33t36.5 88h-65zM196 0v466h2l211 -466h132v722h-126v-428h-2l-192 428h-151v-722h126z
" />
    <glyph glyph-name="Ograve" unicode="&#xd2;" horiz-adv-x="556" 
d="M115 909l147 -146h101l-93 146h-155zM50 232q0 -65 16.5 -111.5t46.5 -75.5t71.5 -42t93.5 -13t93.5 13t71.5 42t46.5 75.5t16.5 111.5v258q0 65 -16.5 111.5t-46.5 75.5t-71.5 42t-93.5 13t-93.5 -13t-71.5 -42t-46.5 -75.5t-16.5 -111.5v-258zM188 508q0 57 23 79.5
t67 22.5q45 0 67.5 -22.5t22.5 -79.5v-294q0 -57 -22.5 -79.5t-67.5 -22.5q-44 0 -67 22.5t-23 79.5v294z" />
    <glyph glyph-name="Oacute" unicode="&#xd3;" horiz-adv-x="556" 
d="M286 909l-93 -146h101l147 146h-155zM50 232q0 -65 16.5 -111.5t46.5 -75.5t71.5 -42t93.5 -13t93.5 13t71.5 42t46.5 75.5t16.5 111.5v258q0 65 -16.5 111.5t-46.5 75.5t-71.5 42t-93.5 13t-93.5 -13t-71.5 -42t-46.5 -75.5t-16.5 -111.5v-258zM188 508q0 57 23 79.5
t67 22.5q45 0 67.5 -22.5t22.5 -79.5v-294q0 -57 -22.5 -79.5t-67.5 -22.5q-44 0 -67 22.5t-23 79.5v294z" />
    <glyph glyph-name="Ocircumflex" unicode="&#xd4;" horiz-adv-x="556" 
d="M215 909l-114 -146h113l64 82l64 -82h113l-114 146h-126zM50 232q0 -65 16.5 -111.5t46.5 -75.5t71.5 -42t93.5 -13t93.5 13t71.5 42t46.5 75.5t16.5 111.5v258q0 65 -16.5 111.5t-46.5 75.5t-71.5 42t-93.5 13t-93.5 -13t-71.5 -42t-46.5 -75.5t-16.5 -111.5v-258z
M188 508q0 57 23 79.5t67 22.5q45 0 67.5 -22.5t22.5 -79.5v-294q0 -57 -22.5 -79.5t-67.5 -22.5q-44 0 -67 22.5t-23 79.5v294z" />
    <glyph glyph-name="Otilde" unicode="&#xd5;" horiz-adv-x="556" 
d="M396 897q-4 -19 -16.5 -31t-30.5 -12q-14 0 -53 15q-27 11 -47 16.5t-39 5.5q-50 0 -78.5 -34.5t-36.5 -87.5h63q4 19 15.5 30.5t29.5 11.5q21 0 67 -16q52 -19 80 -19q49 0 74.5 33t36.5 88h-65zM50 232q0 -65 16.5 -111.5t46.5 -75.5t71.5 -42t93.5 -13t93.5 13
t71.5 42t46.5 75.5t16.5 111.5v258q0 65 -16.5 111.5t-46.5 75.5t-71.5 42t-93.5 13t-93.5 -13t-71.5 -42t-46.5 -75.5t-16.5 -111.5v-258zM188 508q0 57 23 79.5t67 22.5q45 0 67.5 -22.5t22.5 -79.5v-294q0 -57 -22.5 -79.5t-67.5 -22.5q-44 0 -67 22.5t-23 79.5v294z" />
    <glyph glyph-name="Odieresis" unicode="&#xd6;" horiz-adv-x="556" 
d="M123 885v-114h120v114h-120zM313 885v-114h120v114h-120zM50 232q0 -65 16.5 -111.5t46.5 -75.5t71.5 -42t93.5 -13t93.5 13t71.5 42t46.5 75.5t16.5 111.5v258q0 65 -16.5 111.5t-46.5 75.5t-71.5 42t-93.5 13t-93.5 -13t-71.5 -42t-46.5 -75.5t-16.5 -111.5v-258z
M188 508q0 57 23 79.5t67 22.5q45 0 67.5 -22.5t22.5 -79.5v-294q0 -57 -22.5 -79.5t-67.5 -22.5q-44 0 -67 22.5t-23 79.5v294z" />
    <glyph glyph-name="multiply" unicode="&#xd7;" horiz-adv-x="600" 
d="M214 273v-1l-186 -186l87 -86l185 186l186 -186l86 86l-186 186l186 187l-86 85l-186 -185l-185 185l-87 -85z" />
    <glyph glyph-name="Oslash" unicode="&#xd8;" horiz-adv-x="556" 
d="M190 262h-2v246q0 57 23 79.5t67 22.5q54 0 74 -32zM366 433h2v-219q0 -57 -22.5 -79.5t-67.5 -22.5q-47 0 -66 22zM446 770l-36 -68q-53 30 -132 30q-52 0 -93.5 -13t-71.5 -42t-46.5 -75.5t-16.5 -111.5v-258q0 -97 37 -154l-81 -156h104l48 93q47 -25 120 -25
q52 0 93.5 13t71.5 42t46.5 75.5t16.5 111.5v258q0 85 -29 140l73 140h-104z" />
    <glyph glyph-name="Ugrave" unicode="&#xd9;" horiz-adv-x="611" 
d="M143 909l147 -146h101l-93 146h-155zM70 722v-506q0 -115 62 -170.5t173 -55.5t173.5 55.5t62.5 170.5v506h-138v-505q0 -105 -98 -105q-97 0 -97 105v505h-138z" />
    <glyph glyph-name="Uacute" unicode="&#xda;" horiz-adv-x="611" 
d="M314 909l-93 -146h101l147 146h-155zM70 722v-506q0 -115 62 -170.5t173 -55.5t173.5 55.5t62.5 170.5v506h-138v-505q0 -105 -98 -105q-97 0 -97 105v505h-138z" />
    <glyph glyph-name="Ucircumflex" unicode="&#xdb;" horiz-adv-x="611" 
d="M243 909l-114 -146h113l64 82l64 -82h113l-114 146h-126zM70 722v-506q0 -115 62 -170.5t173 -55.5t173.5 55.5t62.5 170.5v506h-138v-505q0 -105 -98 -105q-97 0 -97 105v505h-138z" />
    <glyph glyph-name="Udieresis" unicode="&#xdc;" horiz-adv-x="611" 
d="M151 885v-114h120v114h-120zM341 885v-114h120v114h-120zM70 722v-506q0 -115 62 -170.5t173 -55.5t173.5 55.5t62.5 170.5v506h-138v-505q0 -105 -98 -105q-97 0 -97 105v505h-138z" />
    <glyph glyph-name="Yacute" unicode="&#xdd;" horiz-adv-x="556" 
d="M286 909l-93 -146h101l147 146h-155zM159 722h-147l197 -430v-292h138v292l197 430h-147l-117 -291z" />
    <glyph glyph-name="Thorn" unicode="&#xde;" horiz-adv-x="556" 
d="M208 0v158h61q126 0 189.5 56t63.5 160t-63.5 160t-189.5 56h-61v132h-138v-722h138zM208 476h74q102 0 102 -102t-102 -102h-74v204z" />
    <glyph glyph-name="germandbls" unicode="&#xdf;" 
d="M186 0v553q0 25 14 42t42 17q35 0 50.5 -23.5t15.5 -64.5q0 -40 -18.5 -63t-52.5 -25v-102q55 0 74.5 -31t19.5 -94q0 -52 -13 -75.5t-42 -23.5q-22 0 -40 9v-114q35 -15 73 -15q66 0 107 52.5t41 149.5q0 79 -20.5 126t-73.5 75q31 17 48 53t17 75q0 97 -46.5 149
t-132.5 52q-54 0 -90.5 -14t-58 -40.5t-31 -62.5t-9.5 -82v-523h126z" />
    <glyph glyph-name="agrave" unicode="&#xe0;" 
d="M87 756l147 -146h101l-93 146h-155zM174 385q0 29 20.5 48t49.5 19t47 -16t18 -49v-40q-65 -19 -114 -39t-85.5 -46t-57 -61t-20.5 -81q0 -64 33 -97t92 -33q45 0 82.5 16.5t67.5 46.5q2 -8 5 -27q2 -16 4 -26h126q-7 25 -7 44v345q0 77 -44.5 121t-140.5 44
q-82 0 -139 -41.5t-63 -127.5h126zM309 134q-25 -25 -46.5 -37.5t-48.5 -12.5q-26 0 -41 15t-15 42q0 39 43 70.5t108 54.5v-132z" />
    <glyph glyph-name="aacute" unicode="&#xe1;" 
d="M258 756l-93 -146h101l147 146h-155zM174 385q0 29 20.5 48t49.5 19t47 -16t18 -49v-40q-65 -19 -114 -39t-85.5 -46t-57 -61t-20.5 -81q0 -64 33 -97t92 -33q45 0 82.5 16.5t67.5 46.5q2 -8 5 -27q2 -16 4 -26h126q-7 25 -7 44v345q0 77 -44.5 121t-140.5 44
q-82 0 -139 -41.5t-63 -127.5h126zM309 134q-25 -25 -46.5 -37.5t-48.5 -12.5q-26 0 -41 15t-15 42q0 39 43 70.5t108 54.5v-132z" />
    <glyph glyph-name="acircumflex" unicode="&#xe2;" 
d="M187 756l-114 -146h113l64 82l64 -82h113l-114 146h-126zM174 385q0 29 20.5 48t49.5 19t47 -16t18 -49v-40q-65 -19 -114 -39t-85.5 -46t-57 -61t-20.5 -81q0 -64 33 -97t92 -33q45 0 82.5 16.5t67.5 46.5q2 -8 5 -27q2 -16 4 -26h126q-7 25 -7 44v345q0 77 -44.5 121
t-140.5 44q-82 0 -139 -41.5t-63 -127.5h126zM309 134q-25 -25 -46.5 -37.5t-48.5 -12.5q-26 0 -41 15t-15 42q0 39 43 70.5t108 54.5v-132z" />
    <glyph glyph-name="atilde" unicode="&#xe3;" 
d="M368 744q-4 -19 -16.5 -31t-30.5 -12q-14 0 -53 15q-27 11 -47 16.5t-39 5.5q-50 0 -78.5 -34.5t-36.5 -87.5h63q4 19 15.5 30.5t29.5 11.5q21 0 67 -16q52 -19 80 -19q49 0 74.5 33t36.5 88h-65zM174 385q0 29 20.5 48t49.5 19t47 -16t18 -49v-40q-65 -19 -114 -39
t-85.5 -46t-57 -61t-20.5 -81q0 -64 33 -97t92 -33q45 0 82.5 16.5t67.5 46.5q2 -8 5 -27q2 -16 4 -26h126q-7 25 -7 44v345q0 77 -44.5 121t-140.5 44q-82 0 -139 -41.5t-63 -127.5h126zM309 134q-25 -25 -46.5 -37.5t-48.5 -12.5q-26 0 -41 15t-15 42q0 39 43 70.5
t108 54.5v-132z" />
    <glyph glyph-name="adieresis" unicode="&#xe4;" 
d="M95 732v-114h120v114h-120zM285 732v-114h120v114h-120zM174 385q0 29 20.5 48t49.5 19t47 -16t18 -49v-40q-65 -19 -114 -39t-85.5 -46t-57 -61t-20.5 -81q0 -64 33 -97t92 -33q45 0 82.5 16.5t67.5 46.5q2 -8 5 -27q2 -16 4 -26h126q-7 25 -7 44v345q0 77 -44.5 121
t-140.5 44q-82 0 -139 -41.5t-63 -127.5h126zM309 134q-25 -25 -46.5 -37.5t-48.5 -12.5q-26 0 -41 15t-15 42q0 39 43 70.5t108 54.5v-132z" />
    <glyph glyph-name="aring" unicode="&#xe5;" 
d="M249 604q44 0 76 31.5t32 75.5t-32 75.5t-76 31.5t-75 -31.5t-31 -75.5t31 -75.5t75 -31.5zM249 764q22 0 38 -15.5t16 -37.5t-16 -37.5t-38 -15.5t-37 15.5t-15 37.5t15 37.5t37 15.5zM174 385q0 29 20.5 48t49.5 19t47 -16t18 -49v-40q-65 -19 -114 -39t-85.5 -46
t-57 -61t-20.5 -81q0 -64 33 -97t92 -33q45 0 82.5 16.5t67.5 46.5q2 -8 5 -27q2 -16 4 -26h126q-7 25 -7 44v345q0 77 -44.5 121t-140.5 44q-82 0 -139 -41.5t-63 -127.5h126zM309 134q-25 -25 -46.5 -37.5t-48.5 -12.5q-26 0 -41 15t-15 42q0 39 43 70.5t108 54.5v-132z
" />
    <glyph glyph-name="ae" unicode="&#xe6;" horiz-adv-x="778" 
d="M316 134q-18 -24 -39.5 -37t-48.5 -13q-26 0 -41 15t-15 42q0 39 41.5 70.5t102.5 54.5v-132zM716 242v127q0 82 -54 133.5t-136 51.5q-40 0 -74.5 -17t-59.5 -45q-23 29 -60.5 45.5t-83.5 16.5q-33 0 -64.5 -9.5t-58 -30t-43.5 -53t-20 -76.5h126q0 29 20.5 48t49.5 19
q28 0 43 -15.5t15 -49.5v-40q-62 -19 -109.5 -39t-83.5 -46t-56.5 -61t-20.5 -81q0 -64 33 -97t92 -33q44 0 83.5 13t96.5 57q22 -26 63.5 -48t101.5 -22q94 0 144.5 46.5t55.5 131.5h-126q0 -34 -18 -55t-56 -21q-33 0 -53.5 19.5t-20.5 58.5v72h274zM442 344v30
q0 37 18.5 57.5t55.5 20.5t55.5 -20.5t18.5 -57.5v-30h-148z" />
    <glyph glyph-name="ccedilla" unicode="&#xe7;" 
d="M113 -203q63 -25 109 -25q50 0 88.5 23.5t38.5 70.5q0 35 -27 56.5t-63 21.5q-20 0 -31 -7l-2 2l42 61h-53l-59 -90l21 -20l3 1q27 7 42 7q17 0 29 -10.5t12 -26.5q0 -20 -17 -29.5t-39 -9.5q-24 0 -72 16l-3 1zM449 356q-1 101 -52.5 149.5t-146.5 48.5
q-97 0 -148.5 -50.5t-51.5 -155.5v-152q0 -105 51.5 -155.5t148.5 -50.5t148.5 50.5t51.5 155.5v2h-126v-34q0 -31 -20 -47.5t-54 -16.5t-54 16.5t-20 47.5v216q0 31 20 47.5t54 16.5t54 -16.5t20 -47.5v-24h125z" />
    <glyph glyph-name="egrave" unicode="&#xe8;" 
d="M87 756l147 -146h101l-93 146h-155zM450 242v127q0 83 -56 134t-144 51q-91 0 -145.5 -52t-54.5 -141v-178q0 -89 54.5 -141t145.5 -52q94 0 144.5 46.5t55.5 131.5h-126q0 -34 -18 -55t-56 -21q-33 0 -53.5 19.5t-20.5 58.5v72h274zM176 344v30q0 37 18.5 57.5
t55.5 20.5t55.5 -20.5t18.5 -57.5v-30h-148z" />
    <glyph glyph-name="eacute" unicode="&#xe9;" 
d="M258 756l-93 -146h101l147 146h-155zM450 242v127q0 83 -56 134t-144 51q-91 0 -145.5 -52t-54.5 -141v-178q0 -89 54.5 -141t145.5 -52q94 0 144.5 46.5t55.5 131.5h-126q0 -34 -18 -55t-56 -21q-33 0 -53.5 19.5t-20.5 58.5v72h274zM176 344v30q0 37 18.5 57.5
t55.5 20.5t55.5 -20.5t18.5 -57.5v-30h-148z" />
    <glyph glyph-name="ecircumflex" unicode="&#xea;" 
d="M187 756l-114 -146h113l64 82l64 -82h113l-114 146h-126zM450 242v127q0 83 -56 134t-144 51q-91 0 -145.5 -52t-54.5 -141v-178q0 -89 54.5 -141t145.5 -52q94 0 144.5 46.5t55.5 131.5h-126q0 -34 -18 -55t-56 -21q-33 0 -53.5 19.5t-20.5 58.5v72h274zM176 344v30
q0 37 18.5 57.5t55.5 20.5t55.5 -20.5t18.5 -57.5v-30h-148z" />
    <glyph glyph-name="edieresis" unicode="&#xeb;" 
d="M95 732v-114h120v114h-120zM285 732v-114h120v114h-120zM450 242v127q0 83 -56 134t-144 51q-91 0 -145.5 -52t-54.5 -141v-178q0 -89 54.5 -141t145.5 -52q94 0 144.5 46.5t55.5 131.5h-126q0 -34 -18 -55t-56 -21q-33 0 -53.5 19.5t-20.5 58.5v72h274zM176 344v30
q0 37 18.5 57.5t55.5 20.5t55.5 -20.5t18.5 -57.5v-30h-148z" />
    <glyph glyph-name="igrave" unicode="&#xec;" horiz-adv-x="278" 
d="M-24 756l147 -146h101l-93 146h-155zM202 0v544h-126v-544h126z" />
    <glyph glyph-name="iacute" unicode="&#xed;" horiz-adv-x="278" 
d="M147 756l-93 -146h101l147 146h-155zM202 0v544h-126v-544h126z" />
    <glyph glyph-name="icircumflex" unicode="&#xee;" horiz-adv-x="278" 
d="M76 756l-114 -146h113l64 82l64 -82h113l-114 146h-126zM202 0v544h-126v-544h126z" />
    <glyph glyph-name="idieresis" unicode="&#xef;" horiz-adv-x="278" 
d="M-16 732v-114h120v114h-120zM174 732v-114h120v114h-120zM202 0v544h-126v-544h126z" />
    <glyph glyph-name="eth" unicode="&#xf0;" 
d="M176 350q0 29 20 44.5t54 15.5t54 -15.5t20 -44.5v-190q0 -29 -20 -44.5t-54 -15.5t-54 15.5t-20 44.5v190zM176 708l15 -18q20 -25 32 -41l-95 -33l30 -74l110 38q19 -35 25 -64q-12 3 -21 3.5t-22 0.5q-97 0 -148.5 -47.5t-51.5 -146.5v-143q0 -99 51.5 -146t148.5 -47
t148.5 47t51.5 146v143q0 159 -77 290l91 32l-30 74l-108 -37q-2 2 -4 5q-18 22 -28 32z" />
    <glyph glyph-name="ntilde" unicode="&#xf1;" 
d="M368 744q-4 -19 -16.5 -31t-30.5 -12q-14 0 -53 15q-27 11 -47 16.5t-39 5.5q-50 0 -78.5 -34.5t-36.5 -87.5h63q4 19 15.5 30.5t29.5 11.5q21 0 67 -16q52 -19 80 -19q49 0 74.5 33t36.5 88h-65zM186 0v411q26 24 45.5 36.5t36.5 12.5q25 0 35.5 -15.5t10.5 -44.5v-400
h126v414q0 74 -29 107t-88 33q-36 0 -68 -18t-73 -54v62h-122v-544h126z" />
    <glyph glyph-name="ograve" unicode="&#xf2;" 
d="M87 756l147 -146h101l-93 146h-155zM50 196q0 -105 51.5 -155.5t148.5 -50.5t148.5 50.5t51.5 155.5v152q0 105 -51.5 155.5t-148.5 50.5t-148.5 -50.5t-51.5 -155.5v-152zM176 380q0 31 20 47.5t54 16.5t54 -16.5t20 -47.5v-216q0 -31 -20 -47.5t-54 -16.5t-54 16.5
t-20 47.5v216z" />
    <glyph glyph-name="oacute" unicode="&#xf3;" 
d="M258 756l-93 -146h101l147 146h-155zM50 196q0 -105 51.5 -155.5t148.5 -50.5t148.5 50.5t51.5 155.5v152q0 105 -51.5 155.5t-148.5 50.5t-148.5 -50.5t-51.5 -155.5v-152zM176 380q0 31 20 47.5t54 16.5t54 -16.5t20 -47.5v-216q0 -31 -20 -47.5t-54 -16.5t-54 16.5
t-20 47.5v216z" />
    <glyph glyph-name="ocircumflex" unicode="&#xf4;" 
d="M187 756l-114 -146h113l64 82l64 -82h113l-114 146h-126zM50 196q0 -105 51.5 -155.5t148.5 -50.5t148.5 50.5t51.5 155.5v152q0 105 -51.5 155.5t-148.5 50.5t-148.5 -50.5t-51.5 -155.5v-152zM176 380q0 31 20 47.5t54 16.5t54 -16.5t20 -47.5v-216q0 -31 -20 -47.5
t-54 -16.5t-54 16.5t-20 47.5v216z" />
    <glyph glyph-name="otilde" unicode="&#xf5;" 
d="M368 744q-4 -19 -16.5 -31t-30.5 -12q-14 0 -53 15q-27 11 -47 16.5t-39 5.5q-50 0 -78.5 -34.5t-36.5 -87.5h63q4 19 15.5 30.5t29.5 11.5q21 0 67 -16q52 -19 80 -19q49 0 74.5 33t36.5 88h-65zM50 196q0 -105 51.5 -155.5t148.5 -50.5t148.5 50.5t51.5 155.5v152
q0 105 -51.5 155.5t-148.5 50.5t-148.5 -50.5t-51.5 -155.5v-152zM176 380q0 31 20 47.5t54 16.5t54 -16.5t20 -47.5v-216q0 -31 -20 -47.5t-54 -16.5t-54 16.5t-20 47.5v216z" />
    <glyph glyph-name="odieresis" unicode="&#xf6;" 
d="M95 732v-114h120v114h-120zM285 732v-114h120v114h-120zM50 196q0 -105 51.5 -155.5t148.5 -50.5t148.5 50.5t51.5 155.5v152q0 105 -51.5 155.5t-148.5 50.5t-148.5 -50.5t-51.5 -155.5v-152zM176 380q0 31 20 47.5t54 16.5t54 -16.5t20 -47.5v-216q0 -31 -20 -47.5
t-54 -16.5t-54 16.5t-20 47.5v216z" />
    <glyph glyph-name="divide" unicode="&#xf7;" horiz-adv-x="600" 
d="M572 211v122h-544v-122h544zM204 495q0 -39 28.5 -67t68.5 -28q36 0 64.5 29.5t28.5 65.5q0 38 -28 66.5t-66 28.5q-39 0 -67.5 -28t-28.5 -67zM204 49q0 -38 28.5 -66.5t68.5 -28.5q36 0 64.5 29.5t28.5 65.5q0 39 -28 67t-66 28q-39 0 -67.5 -27.5t-28.5 -67.5z" />
    <glyph glyph-name="oslash" unicode="&#xf8;" 
d="M178 209h-2v171q0 31 20 47.5t54 16.5q28 0 46 -12zM322 317h2v-153q0 -31 -20 -47.5t-54 -16.5q-23 0 -39 8zM156 6q38 -16 94 -16q97 0 148.5 50.5t51.5 155.5v152q0 88 -36 136l78 146h-89l-51 -95q-42 19 -102 19q-97 0 -148.5 -50.5t-51.5 -155.5v-152
q0 -94 42 -144l-88 -164h89z" />
    <glyph glyph-name="ugrave" unicode="&#xf9;" 
d="M78 756l147 -146h101l-93 146h-155zM314 544v-411q-26 -23 -45.5 -36t-36.5 -13q-24 0 -35 15.5t-11 44.5v400h-126v-414q0 -74 29 -107t88 -33q36 0 68 18t73 54v-62h122v544h-126z" />
    <glyph glyph-name="uacute" unicode="&#xfa;" 
d="M249 756l-93 -146h101l147 146h-155zM314 544v-411q-26 -23 -45.5 -36t-36.5 -13q-24 0 -35 15.5t-11 44.5v400h-126v-414q0 -74 29 -107t88 -33q36 0 68 18t73 54v-62h122v544h-126z" />
    <glyph glyph-name="ucircumflex" unicode="&#xfb;" 
d="M178 756l-114 -146h113l64 82l64 -82h113l-114 146h-126zM314 544v-411q-26 -23 -45.5 -36t-36.5 -13q-24 0 -35 15.5t-11 44.5v400h-126v-414q0 -74 29 -107t88 -33q36 0 68 18t73 54v-62h122v544h-126z" />
    <glyph glyph-name="udieresis" unicode="&#xfc;" 
d="M86 732v-114h120v114h-120zM276 732v-114h120v114h-120zM314 544v-411q-26 -23 -45.5 -36t-36.5 -13q-24 0 -35 15.5t-11 44.5v400h-126v-414q0 -74 29 -107t88 -33q36 0 68 18t73 54v-62h122v544h-126z" />
    <glyph glyph-name="yacute" unicode="&#xfd;" horiz-adv-x="444" 
d="M230 756l-93 -146h101l147 146h-155zM32 -190q28 -2 40 -2q48 0 82 10t58.5 32t42.5 59t33 93l145 542h-128l-79 -360h-2l-85 360h-128l126 -439q23 -81 23 -115q0 -22 -26.5 -47t-64.5 -25q-25 0 -37 2v-110z" />
    <glyph glyph-name="thorn" unicode="&#xfe;" 
d="M186 421q36 39 76 39q29 0 45.5 -27.5t16.5 -102.5v-116q0 -75 -16.5 -102.5t-45.5 -27.5q-40 0 -76 39v298zM60 722v-914h126v242q46 -33 73.5 -46.5t52.5 -13.5q72 0 105 54t33 162v132q0 108 -33 162t-105 54q-20 0 -40 -6.5t-39 -17.5q-34 -20 -47 -42h-2v234h-124z
" />
    <glyph glyph-name="ydieresis" unicode="&#xff;" horiz-adv-x="444" 
d="M67 732v-114h120v114h-120zM257 732v-114h120v114h-120zM32 -190q28 -2 40 -2q48 0 82 10t58.5 32t42.5 59t33 93l145 542h-128l-79 -360h-2l-85 360h-128l126 -439q23 -81 23 -115q0 -22 -26.5 -47t-64.5 -25q-25 0 -37 2v-110z" />
    <glyph glyph-name="OE" unicode="&#x152;" horiz-adv-x="944" 
d="M196 436q0 98 31.5 136t110.5 38q64 0 88 -31.5t24 -98.5v-238q0 -67 -24 -98.5t-88 -31.5q-79 0 -110.5 38t-31.5 136v150zM588 600h297v122h-327q-29 0 -49 1t-51 4q-32 2 -57.5 3.5t-58.5 1.5q-131 0 -207.5 -68t-76.5 -200v-191q0 -132 67 -207.5t180 -75.5
q28 0 49 1.5t46 3.5q24 3 40.5 4t40.5 1h413v122h-306v190h223v122h-223v166z" />
    <glyph glyph-name="oe" unicode="&#x153;" horiz-adv-x="778" 
d="M176 380q0 31 20 47.5t54 16.5t54 -16.5t20 -47.5v-216q0 -31 -20 -47.5t-54 -16.5t-54 16.5t-20 47.5v216zM728 242v127q0 82 -55 133.5t-139 51.5q-49 0 -86 -19.5t-60 -52.5q-22 33 -58 52.5t-86 19.5q-93 0 -143.5 -50.5t-50.5 -155.5v-152q0 -105 50.5 -155.5
t143.5 -50.5q50 0 86 19.5t58 52.5q23 -33 59 -52.5t81 -19.5q94 0 144.5 46.5t55.5 131.5h-126q0 -34 -18 -55t-56 -21q-34 0 -56 20t-22 58v72h278zM450 344v30q0 37 20 57.5t58 20.5q37 0 55.5 -20.5t18.5 -57.5v-30h-152z" />
    <glyph glyph-name="Scaron" unicode="&#x160;" horiz-adv-x="556" 
d="M341 763l114 146h-113l-64 -82l-64 82h-113l114 -146h126zM491 557q-19 80 -76 127.5t-146 47.5q-105 0 -161 -53.5t-56 -148.5q0 -39 15 -70.5t39.5 -55t52.5 -41t70 -40.5q67 -37 99 -64.5t32 -68.5q0 -39 -24 -62.5t-61 -23.5q-35 0 -65.5 29t-41.5 89l-136 -29
q27 -103 88 -153t148 -50q108 0 169 56t61 150q0 47 -17 84t-45 64.5t-57.5 46t-75.5 43.5q-58 31 -85.5 53t-27.5 52q0 37 20 58t56 21t60 -23t41 -74z" />
    <glyph glyph-name="scaron" unicode="&#x161;" horiz-adv-x="444" 
d="M285 610l114 146h-113l-64 -82l-64 82h-113l114 -146h126zM404 418q-24 63 -72.5 99.5t-117.5 36.5q-72 0 -122 -39.5t-50 -112.5q0 -37 13 -65t33.5 -47t43.5 -31.5t59 -29.5q50 -23 73.5 -41t23.5 -48q0 -22 -16.5 -35t-44.5 -13q-36 0 -59.5 22.5t-32.5 61.5l-113 -31
q42 -93 90.5 -124t114.5 -31q81 0 131 43t50 122q0 34 -13.5 60t-35 45t-44.5 32t-60 31q-49 24 -71 40t-22 40q0 21 14.5 35t36.5 14q62 0 87 -74z" />
    <glyph glyph-name="Ydieresis" unicode="&#x178;" horiz-adv-x="556" 
d="M123 885v-114h120v114h-120zM313 885v-114h120v114h-120zM159 722h-147l197 -430v-292h138v292l197 430h-147l-117 -291z" />
    <glyph glyph-name="florin" unicode="&#x192;" horiz-adv-x="556" 
d="M26 -181q28 -11 73 -11q49 0 82.5 19t55 51t33.5 70.5t22 88.5l64 329h116v88h-99q14 98 33 136.5t52 39.5q22 0 44 -10l18 100q-39 12 -74 12q-43 0 -74 -15t-53 -47.5t-38 -84.5t-30 -131h-119v-88h98l-71 -371q-8 -46 -25 -65.5t-40 -19.5q-12 0 -27 3.5t-25 8.5z" />
    <glyph glyph-name="circumflex" unicode="&#x2c6;" horiz-adv-x="278" 
d="M76 756l-114 -146h113l64 82l64 -82h113l-114 146h-126z" />
    <glyph glyph-name="tilde" unicode="&#x2dc;" horiz-adv-x="278" 
d="M257 744q-4 -19 -16.5 -31t-30.5 -12q-14 0 -53 15q-27 11 -47 16.5t-39 5.5q-50 0 -78.5 -34.5t-36.5 -87.5h63q4 19 15.5 30.5t29.5 11.5q21 0 67 -16q52 -19 80 -19q49 0 74.5 33t36.5 88h-65z" />
    <glyph glyph-name="endash" unicode="&#x2013;" 
d="M500 230v84h-500v-84h500z" />
    <glyph glyph-name="emdash" unicode="&#x2014;" horiz-adv-x="1000" 
d="M1000 230v84h-1000v-84h1000z" />
    <glyph glyph-name="quoteleft" unicode="&#x2018;" horiz-adv-x="222" 
d="M173 732h-70l-63 -148v-142h142v142h-60z" />
    <glyph glyph-name="quoteright" unicode="&#x2019;" horiz-adv-x="222" 
d="M49 432h70l63 148v142h-142v-142h60z" />
    <glyph glyph-name="quotesinglbase" unicode="&#x201a;" horiz-adv-x="222" 
d="M49 -148h70l63 148v142h-142v-142h60z" />
    <glyph glyph-name="quotedblleft" unicode="&#x201c;" horiz-adv-x="444" 
d="M173 732h-70l-63 -148v-142h142v142h-60zM395 732h-70l-63 -148v-142h142v142h-60z" />
    <glyph glyph-name="quotedblright" unicode="&#x201d;" horiz-adv-x="444" 
d="M49 432h70l63 148v142h-142v-142h60zM271 432h70l63 148v142h-142v-142h60z" />
    <glyph glyph-name="quotedblbase" unicode="&#x201e;" horiz-adv-x="444" 
d="M49 -148h70l63 148v142h-142v-142h60zM271 -148h70l63 148v142h-142v-142h60z" />
    <glyph glyph-name="dagger" unicode="&#x2020;" 
d="M66 467l159 27l-25 -170q7 -58 12 -124.5t13 -181.5q4 -59 6 -92h38q2 33 6 92q6 99 12 173t13 133l-25 170l159 -27v96l-162 -27l26 196h-96l26 -196l-162 27v-96z" />
    <glyph glyph-name="daggerdbl" unicode="&#x2021;" 
d="M200 329l25 -177l-159 27v-96l162 27l-26 -184h96l-26 184l162 -27v96l-159 -27l25 177l-25 177l159 -27v96l-162 -27l26 184h-96l26 -184l-162 27v-96l159 27z" />
    <glyph glyph-name="bullet" unicode="&#x2022;" 
d="M69 361q0 -37 14 -70t38.5 -58t57.5 -39t70 -14t70 14t58 39t39 58t14 70t-14 70t-39 57.5t-58 38.5t-70 14t-70 -14t-57.5 -38.5t-38.5 -57.5t-14 -70z" />
    <glyph glyph-name="ellipsis" unicode="&#x2026;" horiz-adv-x="1000" 
d="M238 0v142h-142v-142h142zM904 0v142h-142v-142h142zM571 0v142h-142v-142h142z" />
    <glyph glyph-name="perthousand" unicode="&#x2030;" horiz-adv-x="1000" 
d="M162 722q-30 0 -57 -11.5t-48 -32.5q-43 -43 -43 -104t43 -104q21 -21 48 -32.5t57 -11.5t57 11.5t48 32.5q43 43 43 104t-43 104q-21 21 -48 32.5t-57 11.5zM162 640q28 0 47 -19t19 -47t-19 -47t-47 -19t-47 19t-19 47t19 47t47 19zM477 214q28 0 47 -19t19 -47
t-19 -47t-47 -19t-47 19t-19 47t19 47t47 19zM477 296q-30 0 -57 -11.5t-48 -32.5q-43 -43 -43 -104t43 -104q21 -21 48 -32.5t57 -11.5t57 11.5t48 32.5q43 43 43 104t-43 104q-21 21 -48 32.5t-57 11.5zM838 214q28 0 47 -19t19 -47t-19 -47t-47 -19t-47 19t-19 47t19 47
t47 19zM838 296q-30 0 -57 -11.5t-48 -32.5q-43 -43 -43 -104t43 -104q21 -21 48 -32.5t57 -11.5t57 11.5t48 32.5q43 43 43 104t-43 104q-21 21 -48 32.5t-57 11.5zM76 -10h77l408 742h-77z" />
    <glyph glyph-name="guilsinglleft" unicode="&#x2039;" horiz-adv-x="333" 
d="M38 272l122 -160h110l-122 160l122 160h-110z" />
    <glyph glyph-name="guilsinglright" unicode="&#x203a;" horiz-adv-x="333" 
d="M295 272l-122 160h-110l122 -160l-122 -160h110z" />
    <glyph glyph-name="trademark" unicode="&#x2122;" horiz-adv-x="1000" 
d="M592 722h-153v-412h106v280h2l98 -280h81l98 280h2v-280h106v412h-153l-93 -250zM373 722h-341v-84h114v-328h112v328h115v84z" />
    </font>
</defs>
</svg>
